<svg viewBox="0 0 35 16" xmlns="http://www.w3.org/2000/svg"><path d="m27.6727385 6.89148718-.7262906-.29046154c-3.4134701 7.68054696-16.99282055 3.0111453-17.80991457 5.29599996-.13620512 1.5433847 7.41565817.2934701 12.81449577.555077 1.6463589.0797265 2.4719316 1.3225299 1.7728547 3.3482393l1.3769572.0042393c1.5883761-4.9516581 6.6575043-2.4246154 6.8693334-4.0588034-.3480342-1.0744616-5.8257778 0-4.2974359-4.85429062z" fill="#fff"/><path d="m24.1137778 14.9536137c.2178461-.7262906.1452307-1.4525812-.2178462-1.8884103-.3632137-.435829-.8716581-.7262906-1.5253333-.798906l-12.63794873-.1453675c-.07261538 0-.14523077-.0726154-.21784615-.0726154-.07261539-.0726154-.07261539-.1452307 0-.2178461.07261538-.1452308.14523077-.2179829.29046154-.2179829l12.71056414-.1452308c1.5253333-.0726154 3.123282-1.3073504 3.7042051-2.75993162l.7264273-1.88841026c0-.07275214.0726154-.14536752 0-.21798291-.7990427-3.70420512-4.1400341-6.4642735-8.0622222-6.4642735-3.6315897 0-6.754735 2.32423932-7.8442393 5.59275214-.7262906-.50844445-1.59781197-.79904274-2.61470085-.7262906-1.74317949.14523077-3.1231453 1.59781196-3.34112821 3.34099145-.07261538.43582906 0 .87165812.07275214 1.30735043-2.83268376.07261538-5.15692308 2.39685467-5.15692308 5.30215387 0 .2904615 0 .5084444.07261538.798906 0 .1453675.14523077.2179829.21798291.2179829h23.31473501c.1452308 0 .2905983-.0726154.2905983-.2179829z" fill="#f4811f"/><path d="m28.1085265 6.81884444h-.3632137c-.0726154 0-.1452307.07261539-.2178461.14523077l-.5084445 1.74317949c-.2178461.7262906-.1452307 1.4527179.2179829 1.8884103.363077.435829.8715214.7262906 1.5251966.7990427l2.687453.1452308c.0726154 0 .1452308.0726153.2178462.0726153.0726153.0726154.0726153.1452308 0 .2178462-.0726154.1453675-.1452308.2179829-.2905983.2179829l-2.7599317.1452308c-1.5253333.0726154-3.1231453 1.3073504-3.7042051 2.7599316l-.1453675.653812c-.0726154.0726153 0 .2178461.1453675.2178461h9.5874188c.1452308 0 .2178462-.0726154.2178462-.2178461.1452307-.5810599.2904615-1.2347351.2904615-1.888547 0-3.77682056-3.1231453-6.89996586-6.8999658-6.89996586" fill="#faad3f"/></svg>